<svg width="659" height="277" viewBox="0 0 659 277" fill="none" xmlns="http://www.w3.org/2000/svg">
<path d="M231.915 226.915C207.955 164.934 186.704 110.981 162.744 49H121.178C97.8706 110.981 77.3072 164.934 54 226.915C55.1672 226.915 101.8 226.915 100.252 226.915C100.701 225.634 113.973 187.802 113.542 189.029H170.593C171.071 190.314 185.109 228.146 184.653 226.915H231.915ZM127.2 150.501L142.857 109.398L156.377 150.501H127.2Z" fill="#FF7F40"/>
<path d="M231.915 226.915C207.955 164.934 186.704 110.981 162.744 49H142.857V109.398L156.377 150.501H142.857V189.029H170.593C171.07 190.314 185.109 228.146 184.652 226.915" fill="#F25A3C"/>
<path d="M311.778 154.28H368.582V227.419H413.359V49H368.582V115.531H311.778V49H267V227.419H311.778V154.28Z" fill="#A0E65C"/>
<path d="M368.582 115.531H340.18V154.28H368.582V227.419H413.359V49H368.582V115.531Z" fill="#79CC52"/>
<path d="M605.697 165.847C605.593 166.056 605.384 166.786 605.071 168.037C604.967 168.454 604.862 168.872 604.759 169.289C601.212 181.909 586.923 225.957 531.438 226.896C530.812 227 530.186 227 529.56 227C480.749 227 448 191.609 448 139.46C448 83.8699 480.019 49 531.542 49H531.646C587.758 49 601.212 91.1707 604.55 102.748C604.654 103.164 604.759 103.582 604.862 103.895C605.175 104.938 605.28 105.564 605.384 105.668L561.371 115.785C561.266 115.472 561.058 114.116 560.536 112.239C560.432 111.509 560.223 110.779 559.91 109.944C557.72 101.913 551.15 88.25 531.438 87.7289C530.916 87.6246 530.498 87.6246 529.977 87.6246C505.677 87.6246 493.265 104.208 493.265 136.957C493.265 171.062 505.363 188.376 529.247 188.376C529.977 188.376 530.707 188.376 531.438 188.167C558.347 186.915 560.954 159.694 562.31 153.645C562.414 153.228 562.518 152.914 562.623 152.706L605.697 165.847Z" fill="#A0E65C"/>
<path d="M605.697 165.847C605.593 166.056 605.384 166.786 605.071 168.037C604.967 168.454 604.862 168.872 604.759 169.289C601.212 181.909 586.923 225.957 531.438 226.896V188.167C558.346 186.915 560.954 159.694 562.31 153.645C562.413 153.228 562.518 152.914 562.622 152.706L605.697 165.847Z" fill="#79CC52"/>
<path d="M605.384 105.668L561.371 115.785C561.266 115.472 561.058 114.116 560.536 112.239C560.432 111.509 560.223 110.779 559.91 109.944C557.72 101.913 551.15 88.25 531.438 87.7289C531.438 87.7289 531.437 52.2332 531.542 49H531.646C587.758 49 601.212 91.1707 604.55 102.748C604.654 103.164 604.759 103.582 604.862 103.895C605.175 104.938 605.28 105.564 605.384 105.668V105.668Z" fill="#79CC52"/>
</svg>
