<svg width="858" height="1074" viewBox="0 0 858 1074" fill="none" xmlns="http://www.w3.org/2000/svg">
<path d="M372.886 493.806L222.116 958.881" stroke="#E0E0E0" stroke-width="8" stroke-miterlimit="10"/>
<g opacity="0.7">
<path opacity="0.7" d="M489.703 1011.26C471.157 1012.32 454.635 1027.71 454.635 1027.71L446.646 1008.09L445.994 1008.3C449.896 991.379 529.303 642.667 449.813 612.605C388.731 589.504 323.943 560.918 273.182 561.992V479.615H344.347V476.679H400.685C411.485 469.041 395.793 463.788 378.254 460.505C378.968 459.696 379.598 458.816 380.133 457.88L470.368 297.586C470.368 297.586 491.124 263.822 477.781 247.675C464.437 231.527 445.163 288.778 445.163 288.778L371.033 394.472C371.033 394.472 296.216 317.26 248.621 278.862C243.339 273.68 237.38 269.22 230.903 265.604C222.215 259.784 215.639 256.768 212.396 257.951C212.362 257.963 212.336 257.983 212.303 257.995C205.09 256.018 197.641 255.016 190.157 255.015H184.226V242.97C197.511 238.626 209.664 231.433 219.819 221.906C229.975 212.378 237.882 200.749 242.978 187.848C251.342 174.133 256.45 158.715 257.916 142.759C259.383 126.803 257.17 110.726 251.444 95.7404C252.329 95.6369 253.181 95.3449 253.941 94.8845C256.626 93.1731 256.892 89.4292 256.633 86.2779C255.659 75.701 252.098 65.5182 246.257 56.61C240.416 47.7017 232.472 40.3361 223.111 35.1501C215.6 31.0831 206.997 28.2809 201.457 21.8172C196.698 16.2631 194.698 8.4951 188.938 3.96336C182.096 -1.42041 172.211 -0.494866 163.815 1.90745C154.472 4.58421 145.62 8.72025 137.593 14.1595C128.511 20.3185 120.314 28.2311 109.859 31.6401C102.429 34.0624 94.3722 34.0141 86.8958 36.2897C81.1581 38.0898 75.9256 41.1946 71.6168 45.3556C67.3079 49.5166 64.0424 54.6183 62.0815 60.2526C60.1783 66.3056 59.4578 72.6623 59.9587 78.9824C55.4121 86.5073 51.8344 94.5661 49.3091 102.971C48.7498 103.27 48.1871 103.563 47.6329 103.871L49.2584 103.147C43.5877 122.1 43.3993 142.247 48.7148 161.3C54.0303 180.353 64.6366 197.548 79.3284 210.931C90.9381 225.896 106.824 237.059 124.922 242.97V257.541C112.01 260.299 99.6914 265.294 88.5349 272.297L88.5191 272.278C88.5191 272.278 87.5728 272.857 85.9529 273.936C85.7905 274.044 85.6285 274.152 85.4668 274.261C74.496 281.634 37.734 308.572 38.9755 337.682C38.9272 338.801 38.9336 339.923 38.9948 341.05C36.9877 349.462 35.9716 358.076 35.9667 366.719V577.969C35.9382 601.311 43.8608 623.981 58.4538 642.313C27.5148 649.179 7.79733 659.564 7.79733 671.185C7.95261 672.158 7.95261 673.149 7.79733 674.121C7.79733 694.795 70.1927 711.554 147.161 711.554C156.468 711.554 165.558 711.307 174.353 710.84L261.321 780.549L121.957 1002.21C121.957 1002.21 75.9967 1037.44 111.579 1049.19C147.161 1060.93 219.809 1069.74 219.809 1069.74C219.809 1069.74 231.669 1049.19 215.361 1040.38C199.052 1031.57 176.813 1035.98 176.813 1035.98L179.778 1018.36C179.778 1018.36 421.442 812.845 371.034 742.382C361.39 728.902 351.746 714.992 342.019 701.3L380.062 704.732L388.719 1027.35L389.801 1027C387.628 1033.34 372.258 1081.18 406.327 1073.08C442.799 1064.41 509.159 1033.85 509.159 1033.85C509.159 1033.85 508.248 1010.19 489.703 1011.26ZM344.347 456.127L273.182 435.67V375.388L350.53 456.686C346.727 456.309 344.347 456.127 344.347 456.127Z" fill="url(#paint0_linear)"/>
</g>
<path d="M153.979 245.479C211.627 245.479 258.359 199.208 258.359 142.129C258.359 85.0506 211.627 38.7793 153.979 38.7793C96.3322 38.7793 49.5999 85.0506 49.5999 142.129C49.5999 199.208 96.3322 245.479 153.979 245.479Z" fill="black"/>
<path d="M272.856 378.973L352.514 462.699C354.191 464.462 356.265 465.808 358.566 466.629C360.867 467.45 363.332 467.723 365.759 467.424C368.187 467.126 370.509 466.265 372.538 464.912C374.566 463.558 376.244 461.75 377.435 459.635L465.668 302.896L441.023 294.283L368.537 397.633C368.537 397.633 232.456 257.197 213.418 264.14C194.379 271.082 272.856 378.973 272.856 378.973Z" fill="#6C63FF"/>
<path d="M120.636 668.927L3.20908 970.364" stroke="#BDBDBD" stroke-width="5" stroke-miterlimit="10"/>
<path d="M178.625 668.927L296.051 970.364" stroke="#BDBDBD" stroke-width="5" stroke-miterlimit="10"/>
<path d="M149.63 707.683C224.892 707.683 285.903 691.295 285.903 671.08C285.903 650.865 224.892 634.477 149.63 634.477C74.3687 634.477 13.3571 650.865 13.3571 671.08C13.3571 691.295 74.3687 707.683 149.63 707.683Z" fill="#B84733"/>
<path d="M149.63 704.812C224.892 704.812 285.903 688.424 285.903 668.209C285.903 647.994 224.892 631.606 149.63 631.606C74.3687 631.606 13.3571 647.994 13.3571 668.209C13.3571 688.424 74.3687 704.812 149.63 704.812Z" fill="#F55F44"/>
<path d="M92.2885 735.154L220.864 774.383" stroke="#BDBDBD" stroke-width="5" stroke-miterlimit="10"/>
<path d="M206.972 735.154L78.3967 774.383" stroke="#BDBDBD" stroke-width="5" stroke-miterlimit="10"/>
<path d="M151.217 261.269H191.672C213.203 261.269 233.853 269.738 249.078 284.812C264.303 299.887 272.856 320.333 272.856 341.652V554.094H40.9017V370.496C40.9017 341.527 52.5242 313.745 73.2124 293.261C93.9005 272.777 121.96 261.269 151.217 261.269V261.269Z" fill="#6C63FF"/>
<path d="M40.9017 554.094H272.856V678.975H143.831C116.533 678.975 90.3522 668.237 71.0491 649.125C51.746 630.012 40.9017 604.09 40.9017 577.06V554.094V554.094Z" fill="#39447A"/>
<path opacity="0.05" d="M44.0344 347.45L185.873 480.887H342.442V460.792L207.619 422.035L92.2885 281.02C92.2885 281.02 39.9186 313.056 44.0344 347.45Z" fill="black"/>
<path d="M44.0344 344.579L185.873 478.017H342.442V457.921L207.619 419.165L92.2885 278.149C92.2885 278.149 39.9186 310.186 44.0344 344.579Z" fill="#6C63FF"/>
<path d="M342.442 457.921C342.442 457.921 417.828 463.662 397.532 478.017H342.442V457.921Z" fill="#FDA57D"/>
<path d="M441.023 294.283C441.023 294.283 459.869 238.302 472.917 254.092C485.964 269.881 465.668 302.896 465.668 302.896L441.023 294.283Z" fill="#FDA57D"/>
<path opacity="0.05" d="M40.9015 554.093V560.793L272.856 561.271V554.093H40.9015Z" fill="black"/>
<path d="M221.336 686.933L377.365 701.012L385.83 1016.48L441.689 998.471C441.689 998.471 525.231 641.055 445.569 610.928C365.907 580.801 279.797 541.129 228.384 573.46C176.972 605.791 221.336 686.933 221.336 686.933Z" fill="#39447A"/>
<path opacity="0.1" d="M230.814 589.979C230.814 589.979 316.347 633.041 327.945 681.846Z" fill="black"/>
<path d="M139.484 677.539L261.258 775.148L124.985 991.895L181.524 1007.68C181.524 1007.68 417.827 806.727 368.537 737.827C319.247 668.927 269.957 588.544 209.069 587.108C148.181 585.673 139.484 677.539 139.484 677.539Z" fill="#39447A"/>
<path opacity="0.05" d="M330.845 360.312L361.289 411.987L368.537 397.633L330.845 360.312Z" fill="black"/>
<path d="M124.985 991.895C124.985 991.895 80.044 1026.35 114.837 1037.83C149.63 1049.31 220.666 1057.92 220.666 1057.92C220.666 1057.92 232.264 1037.83 216.317 1029.22C200.37 1020.6 178.625 1024.91 178.625 1024.91L181.524 1007.68L124.985 991.895Z" fill="#333333"/>
<path d="M387.126 1015.46C387.126 1015.46 367.385 1069.66 403.048 1061.19C438.711 1052.72 503.6 1022.83 503.6 1022.83C503.6 1022.83 502.709 999.7 484.574 1000.74C466.44 1001.78 450.284 1016.82 450.284 1016.82L442.473 997.637L387.126 1015.46Z" fill="#333333"/>
<path d="M156.879 211.029H156.879C140.866 211.029 127.885 223.882 127.885 239.737V268.446C127.885 284.301 140.866 297.154 156.879 297.154H156.879C172.892 297.154 185.873 284.301 185.873 268.446V239.737C185.873 223.882 172.892 211.029 156.879 211.029Z" fill="#FDA57D"/>
<path opacity="0.05" d="M156.879 213.9C149.189 213.9 141.814 216.925 136.377 222.308C130.939 227.692 127.885 234.994 127.885 242.608V252.362C146.718 258.496 167.04 258.496 185.873 252.362V242.608C185.873 234.994 182.818 227.692 177.381 222.308C171.943 216.925 164.569 213.9 156.879 213.9Z" fill="black"/>
<path d="M156.879 254.092C208.121 254.092 249.661 212.962 249.661 162.225C249.661 111.489 208.121 70.3585 156.879 70.3585C105.637 70.3585 64.0971 111.489 64.0971 162.225C64.0971 212.962 105.637 254.092 156.879 254.092Z" fill="#FDA57D"/>
<path opacity="0.05" d="M64.0971 158.056C64.0971 158.056 87.2925 163.975 100.34 137.872C113.387 111.769 123.535 97.5315 177.175 112.956C230.814 128.38 241.605 130.262 244.183 115.677C245.945 105.71 226.871 81.5006 214.615 67.1676C208.636 60.1754 198.879 56.0043 188.451 56.0043H127.885L91.6417 72.6152L64.0971 96.3451L58.2982 128.38L64.0971 158.056Z" fill="black"/>
<path d="M64.0971 155.186C64.0971 155.186 87.2925 161.104 100.34 135.001C113.387 108.899 123.535 94.6607 177.175 110.085C230.814 125.509 241.605 127.391 244.183 112.806C245.945 102.839 226.871 78.6297 214.615 64.2967C208.636 57.3045 198.879 53.1335 188.451 53.1335H127.885L91.6417 69.7444L64.0971 93.4742L58.2982 125.51L64.0971 155.186Z" fill="black"/>
<path d="M73.5203 173.708C78.7245 173.708 82.9434 165.354 82.9434 155.048C82.9434 144.742 78.7245 136.388 73.5203 136.388C68.316 136.388 64.0971 144.742 64.0971 155.048C64.0971 165.354 68.316 173.708 73.5203 173.708Z" fill="#FDA57D"/>
<path d="M66.7853 107.032C64.6351 95.016 62.5226 82.3979 66.4374 70.8264C68.3548 65.3171 71.5479 60.3285 75.7611 56.2598C79.9744 52.1911 85.0909 49.1552 90.7013 47.395C98.0118 45.1698 105.89 45.2171 113.155 42.8485C123.379 39.515 131.393 31.778 140.274 25.7556C148.123 20.4369 156.778 16.3926 165.915 13.7752C174.125 11.4262 183.79 10.5211 190.48 15.7856C196.112 20.2168 198.068 27.8125 202.722 33.2434C208.138 39.5637 216.551 42.3037 223.896 46.2806C233.049 51.3516 240.817 58.5538 246.528 67.2645C252.239 75.9752 255.721 85.9321 256.674 96.2744C256.927 99.3558 256.667 103.017 254.042 104.69C252.411 105.512 250.573 105.844 248.754 105.646C211.673 105.121 174.546 104.594 137.617 101.224C126.137 100.176 114.634 98.8519 103.114 99.2841C85.2839 99.9724 67.8729 104.837 52.3092 113.477" fill="black"/>
<path d="M565.215 590.218C565.779 590.199 566.313 589.964 566.705 589.562C567.097 589.16 567.316 588.624 567.316 588.065C567.316 587.507 567.097 586.97 566.705 586.568C566.313 586.167 565.779 585.931 565.215 585.912C564.651 585.931 564.117 586.167 563.725 586.568C563.334 586.97 563.115 587.507 563.115 588.065C563.115 588.624 563.334 589.16 563.725 589.562C564.117 589.964 564.651 590.199 565.215 590.218Z" fill="url(#paint1_linear)"/>
<path d="M702.894 493.806L853.665 1025.04" stroke="#E0E0E0" stroke-width="8" stroke-miterlimit="10"/>
<path d="M835 479H222V508H835V479Z" fill="#E0E0E0"/>
<path d="M546.127 470.839H431.6C426.396 470.839 422.177 475.017 422.177 480.17V480.17C422.177 485.323 426.396 489.5 431.6 489.5H546.127C551.332 489.5 555.55 485.323 555.55 480.17C555.55 475.017 551.332 470.839 546.127 470.839Z" fill="#535461"/>
<g opacity="0.7">
<path opacity="0.7" d="M793.941 262.792H544.271C521.677 262.792 503.361 280.927 503.361 303.298V449.226C503.361 471.597 521.677 489.733 544.271 489.733H793.941C816.535 489.733 834.852 471.597 834.852 449.226V303.298C834.852 280.927 816.535 262.792 793.941 262.792Z" fill="url(#paint2_linear)"/>
</g>
<path d="M784.389 266.979H548.174C526.688 266.979 509.271 284.224 509.271 305.498V451.213C509.271 472.487 526.688 489.733 548.174 489.733H784.389C805.874 489.733 823.292 472.487 823.292 451.213V305.498C823.292 284.224 805.874 266.979 784.389 266.979Z" fill="#3E3F49"/>
<path d="M788.738 266.979H552.523C531.037 266.979 513.62 284.224 513.62 305.498V451.213C513.62 472.487 531.037 489.733 552.523 489.733H788.738C810.223 489.733 827.641 472.487 827.641 451.213V305.498C827.641 284.224 810.223 266.979 788.738 266.979Z" fill="#535461"/>
<path d="M685.3 386.868C690.904 386.868 695.448 382.369 695.448 376.82C695.448 371.27 690.904 366.772 685.3 366.772C679.695 366.772 675.152 371.27 675.152 376.82C675.152 382.369 679.695 386.868 685.3 386.868Z" fill="#E0E0E0"/>
<defs>
<linearGradient id="paint0_linear" x1="257755" y1="885092" x2="257755" y2="81508.4" gradientUnits="userSpaceOnUse">
<stop stop-color="#808080" stop-opacity="0.25"/>
<stop offset="0.53514" stop-color="#808080" stop-opacity="0.12"/>
<stop offset="1" stop-color="#808080" stop-opacity="0.1"/>
</linearGradient>
<linearGradient id="paint1_linear" x1="3611.77" y1="2683.38" x2="3611.77" y2="2670.46" gradientUnits="userSpaceOnUse">
<stop stop-color="#808080" stop-opacity="0.25"/>
<stop offset="0.53514" stop-color="#808080" stop-opacity="0.12"/>
<stop offset="1" stop-color="#808080" stop-opacity="0.1"/>
</linearGradient>
<linearGradient id="paint2_linear" x1="215157" y1="77690.1" x2="215157" y2="41810.5" gradientUnits="userSpaceOnUse">
<stop stop-color="#808080" stop-opacity="0.25"/>
<stop offset="0.53514" stop-color="#808080" stop-opacity="0.12"/>
<stop offset="1" stop-color="#808080" stop-opacity="0.1"/>
</linearGradient>
</defs>
</svg>
