<svg width="64" height="72" viewBox="0 0 64 72" fill="none" xmlns="http://www.w3.org/2000/svg">
<path d="M32.0002 34.6621C35.1565 34.6621 37.7152 32.1034 37.7152 28.9471C37.7152 25.7908 35.1565 23.2321 32.0002 23.2321C28.8439 23.2321 26.2852 25.7908 26.2852 28.9471C26.2852 32.1034 28.8439 34.6621 32.0002 34.6621Z" fill="#00D8FF"/>
<path fill-rule="evenodd" clip-rule="evenodd" d="M32.0003 17.3273C39.6735 17.3273 46.8017 18.4283 52.1763 20.2786C58.652 22.508 62.6335 25.8872 62.6335 28.9471C62.6335 32.1357 58.4139 35.7257 51.4599 38.0297C46.2025 39.7716 39.2841 40.6809 32.0003 40.6809C24.5324 40.6809 17.4607 39.8274 12.1441 38.0106C5.41754 35.7114 1.36609 32.075 1.36609 28.9471C1.36609 25.9121 5.1676 22.5589 11.5522 20.3329C16.9469 18.4521 24.2511 17.3273 31.9993 17.3273H32.0003Z" stroke="#00D8FF" stroke-width="2.73408"/>
<path fill-rule="evenodd" clip-rule="evenodd" d="M21.8849 23.1707C25.7183 16.5237 30.233 10.8987 34.5209 7.16719C39.6872 2.67122 44.6036 0.910472 47.2542 2.43894C50.0165 4.03188 51.0183 9.48079 49.5402 16.6557C48.4238 22.0803 45.7542 28.5275 42.1154 34.8373C38.3845 41.3066 34.1125 47.0063 29.883 50.7032C24.531 55.3817 19.3568 57.0747 16.6472 55.5121C14.0179 53.997 13.0125 49.0278 14.2738 42.3848C15.3395 36.7719 18.014 29.8826 21.8836 23.1706L21.8849 23.1707Z" stroke="#00D8FF" stroke-width="2.73408"/>
<path fill-rule="evenodd" clip-rule="evenodd" d="M21.8945 34.8543C18.0502 28.2148 15.4329 21.493 14.3404 15.9145C13.0253 9.19327 13.9551 4.05434 16.6033 2.52143C19.3629 0.923815 24.584 2.77707 30.0618 7.64099C34.2035 11.3183 38.4564 16.8499 42.1058 23.1538C45.8474 29.6168 48.6516 36.1646 49.7425 41.6752C51.1229 48.6485 50.0057 53.9767 47.2986 55.5438C44.672 57.0644 39.8653 55.4545 34.7401 51.0439C30.4096 47.3176 25.7766 41.5598 21.8945 34.8542V34.8543Z" stroke="#00D8FF" stroke-width="2.73408"/>
<path d="M16.3926 69V60.4688H14.7402L14.7344 65.9473L12.3789 60.4688H10.7207V69H12.3789V63.498L14.752 69H16.3926ZM21.9941 69H23.6465V68.9004C23.5645 68.7402 23.502 68.5488 23.459 68.3262C23.416 68.1035 23.3945 67.8223 23.3945 67.4824V64.7637C23.3945 64.3965 23.3262 64.0742 23.1895 63.7969C23.0527 63.5156 22.8633 63.2832 22.6211 63.0996C22.3789 62.916 22.0918 62.7773 21.7598 62.6836C21.4316 62.5898 21.0762 62.543 20.6934 62.543C20.2676 62.543 19.8887 62.5977 19.5566 62.707C19.2285 62.8125 18.9512 62.957 18.7246 63.1406C18.4941 63.3242 18.3184 63.5371 18.1973 63.7793C18.0801 64.0215 18.0215 64.2773 18.0215 64.5469H19.6504C19.6504 64.4336 19.666 64.3301 19.6973 64.2363C19.7324 64.1426 19.7852 64.0625 19.8555 63.9961C19.9336 63.9219 20.0352 63.8652 20.1602 63.8262C20.2852 63.7832 20.4336 63.7617 20.6055 63.7617C20.8008 63.7617 20.9707 63.7871 21.1152 63.8379C21.2637 63.8848 21.3867 63.9531 21.4844 64.043C21.5781 64.1289 21.6484 64.2324 21.6953 64.3535C21.7422 64.4707 21.7656 64.6035 21.7656 64.752V65.127H20.8574C20.3887 65.127 19.9727 65.1699 19.6094 65.2559C19.25 65.3379 18.9473 65.459 18.7012 65.6191C18.4277 65.7949 18.2227 66.0195 18.0859 66.293C17.9492 66.5625 17.8809 66.873 17.8809 67.2246C17.8809 67.498 17.9355 67.752 18.0449 67.9863C18.1543 68.2168 18.3066 68.416 18.502 68.584C18.6973 68.752 18.9297 68.8828 19.1992 68.9766C19.4727 69.0703 19.7715 69.1172 20.0957 69.1172C20.2949 69.1172 20.4805 69.0977 20.6523 69.0586C20.8242 69.0234 20.9824 68.9727 21.127 68.9062C21.2676 68.8438 21.3965 68.7695 21.5137 68.6836C21.6309 68.5977 21.7344 68.5059 21.8242 68.4082C21.8438 68.5215 21.8672 68.6289 21.8945 68.7305C21.9219 68.832 21.9551 68.9219 21.9941 69ZM20.4414 67.8574C20.2891 67.8574 20.1543 67.8398 20.0371 67.8047C19.9238 67.7656 19.8281 67.7148 19.75 67.6523C19.6719 67.5859 19.6113 67.5059 19.5684 67.4121C19.5293 67.3145 19.5098 67.209 19.5098 67.0957C19.5098 66.9512 19.5371 66.8184 19.5918 66.6973C19.6465 66.5723 19.7305 66.4648 19.8438 66.375C19.957 66.2891 20.1035 66.2227 20.2832 66.1758C20.4629 66.125 20.6797 66.0996 20.9336 66.0996H21.7656V67.1895C21.7188 67.2715 21.6543 67.3535 21.5723 67.4355C21.4902 67.5137 21.3926 67.584 21.2793 67.6465C21.166 67.709 21.0391 67.7598 20.8984 67.7988C20.7578 67.8379 20.6055 67.8574 20.4414 67.8574ZM28.2285 61.1074H26.5996V62.6602H25.1523V63.8613H26.5996V66.7441C26.5996 67.1621 26.6543 67.5215 26.7637 67.8223C26.873 68.1191 27.0293 68.3633 27.2324 68.5547C27.4316 68.75 27.6719 68.8945 27.9531 68.9883C28.2383 69.0781 28.5547 69.123 28.9023 69.123C29.082 69.123 29.2637 69.1133 29.4473 69.0938C29.6348 69.0781 29.8145 69.0547 29.9863 69.0234C30.1582 68.9922 30.3203 68.9531 30.4727 68.9062C30.625 68.8555 30.7578 68.7969 30.8711 68.7305L30.7129 67.6113C30.6387 67.6309 30.5488 67.6504 30.4434 67.6699C30.3418 67.6895 30.2324 67.707 30.1152 67.7227C29.9941 67.7422 29.8672 67.7578 29.7344 67.7695C29.6055 67.7812 29.4785 67.7871 29.3535 67.7871C29.1816 67.7871 29.0254 67.7676 28.8848 67.7285C28.748 67.6895 28.6309 67.623 28.5332 67.5293C28.4355 67.4395 28.3594 67.3184 28.3047 67.166C28.2539 67.0098 28.2285 66.8164 28.2285 66.5859V63.8613H30.5957V62.6602H28.2285V61.1074ZM32.8809 62.6602V63.9902H34.6855V67.6758H32.8809V69H38.0488V67.6758H36.332V62.6602H32.8809ZM34.5684 61.0371C34.5684 61.1621 34.5898 61.2793 34.6328 61.3887C34.6797 61.4941 34.7441 61.584 34.8262 61.6582C34.9082 61.7363 35.0059 61.7969 35.1191 61.8398C35.2363 61.8828 35.3652 61.9043 35.5059 61.9043C35.7949 61.9043 36.0234 61.8242 36.1914 61.6641C36.3633 61.5 36.4492 61.291 36.4492 61.0371C36.4492 60.7832 36.3633 60.5762 36.1914 60.416C36.0234 60.252 35.7949 60.1699 35.5059 60.1699C35.3652 60.1699 35.2363 60.1914 35.1191 60.2344C35.0059 60.2773 34.9082 60.3359 34.8262 60.4102C34.7441 60.4883 34.6797 60.582 34.6328 60.6914C34.5898 60.7969 34.5684 60.9121 34.5684 61.0371ZM41.6699 69H43.1992L45.6074 62.6602H43.9082L42.5195 67.1309L42.4316 67.5762L42.3438 67.1309L40.9492 62.6602H39.25L41.6699 69ZM49.9375 69.1172C50.5508 69.1172 51.082 68.998 51.5312 68.7598C51.9805 68.5215 52.3086 68.2559 52.5156 67.9629L51.7012 67.084C51.5137 67.3262 51.2695 67.5078 50.9688 67.6289C50.668 67.75 50.3574 67.8105 50.0371 67.8105C49.8105 67.8105 49.6016 67.7754 49.4102 67.7051C49.2188 67.6348 49.0488 67.5352 48.9004 67.4062C48.7559 67.2812 48.6406 67.1426 48.5547 66.9902C48.4688 66.834 48.3984 66.6289 48.3438 66.375V66.3574H52.6445V65.666C52.6445 65.2012 52.5801 64.7773 52.4512 64.3945C52.3223 64.0078 52.1348 63.6777 51.8887 63.4043C51.6387 63.1309 51.334 62.9199 50.9746 62.7715C50.6191 62.6191 50.2129 62.543 49.7559 62.543C49.3145 62.543 48.9062 62.623 48.5312 62.7832C48.1562 62.9434 47.832 63.168 47.5586 63.457C47.2852 63.7461 47.0723 64.0918 46.9199 64.4941C46.7676 64.8926 46.6914 65.334 46.6914 65.8184V66.0527C46.6914 66.4785 46.7676 66.8789 46.9199 67.2539C47.0762 67.625 47.2969 67.9473 47.582 68.2207C47.8672 68.498 48.209 68.7168 48.6074 68.877C49.0059 69.0371 49.4492 69.1172 49.9375 69.1172ZM49.7441 63.8613C49.9512 63.8613 50.1328 63.8945 50.2891 63.9609C50.4492 64.0234 50.584 64.1094 50.6934 64.2188C50.8027 64.332 50.8887 64.4648 50.9512 64.6172C51.0137 64.7695 51.0449 64.9316 51.0449 65.1035V65.2324H48.373C48.4121 65.0254 48.4707 64.8379 48.5488 64.6699C48.627 64.502 48.7246 64.3574 48.8418 64.2363C48.9551 64.1152 49.0879 64.0234 49.2402 63.9609C49.3926 63.8945 49.5605 63.8613 49.7441 63.8613Z" fill="#00D8FF"/>
</svg>
